<svg t="1672417402209" class="icon" viewBox="0 0 1024 1024" version="1.1" xmlns="http://www.w3.org/2000/svg"
  p-id="15233" width="1em" height="1em">
  <path
    d="M400 832H240a47.94 47.94 0 0 1-48-48V624a48 48 0 0 1 96 0v112h112a48 48 0 0 1 0 96z m0-544H288v112a48 48 0 0 1-96 0V240a47.94 47.94 0 0 1 48-48h160a48 48 0 0 1 0 96z m432 496a47.94 47.94 0 0 1-48 48H624a48 48 0 0 1 0-96h112V624a48 48 0 0 1 96 0z m0-384a48 48 0 0 1-96 0V288H624a48 48 0 0 1 0-96h160a47.94 47.94 0 0 1 48 48z"
    p-id="15234" fill="currentColor"></path>
</svg>